HIERARCHY
ROOT pelvis
{
  OFFSET 0 100 0
  CHANNELS 6 Xposition Yposition Zposition Zrotation Xrotation Yrotation
  JOINT pelvis_right_femur
  {
    OFFSET -10.78128 -3.44521 -0.5502486
    CHANNELS 3 Zrotation Xrotation Yrotation
    JOINT right_femur_tibia
    {
      OFFSET -0.8047443 -44.0398 -0.1307829
      CHANNELS 3 Zrotation Xrotation Yrotation
      JOINT right_tibia_foot
      {
        OFFSET 3.006224 -47.83518 -5
        CHANNELS 3 Zrotation Xrotation Yrotation
        End Site
        {
          OFFSET 0 -5 15
        }
      }
    }
  }
  JOINT pelvis_left_femur
  {
    OFFSET 10.78128 -3.44521 -0.5502486
    CHANNELS 3 Zrotation Xrotation Yrotation
    JOINT left_femur_tibia
    {
      OFFSET 0.8047443 -44.0398 -0.1307829
      CHANNELS 3 Zrotation Xrotation Yrotation
      JOINT left_tibia_foot
      {
        OFFSET -4.370144 -48.10324 -4.275266
        CHANNELS 3 Zrotation Xrotation Yrotation
        End Site
        {
          OFFSET 0 -5 15
        }
      }
    }
  }
  JOINT pelvis_spine1
  {
    OFFSET 0 6.468898 -3.129235
    CHANNELS 3 Zrotation Xrotation Yrotation
    JOINT spine1
    {
      OFFSET 0 23.15396 4.99043
      CHANNELS 3 Zrotation Xrotation Yrotation
      JOINT spine2
      {
        OFFSET 0 20.79997 -5.064912
        CHANNELS 3 Zrotation Xrotation Yrotation
        JOINT neck
        {
          OFFSET 0 14.38658 9.616178
          CHANNELS 3 Zrotation Xrotation Yrotation
          End Site
          {
            OFFSET 0 20 0
          }
        }
      }
      JOINT right_manubrium
      {
        OFFSET -5.722621 16.35077 3.967754
        CHANNELS 3 Zrotation Xrotation Yrotation
        JOINT right_clavicle
        {
          OFFSET -13.16364 1.694482 -4.693211
          CHANNELS 3 Zrotation Xrotation Yrotation
          JOINT right_humerus
          {
            OFFSET -28.5034 -0.3100689 -2.792744
            CHANNELS 3 Zrotation Xrotation Yrotation
            JOINT right_radius
            {
              OFFSET -25.15693 0.02248979 -1.271978
              CHANNELS 3 Zrotation Xrotation Yrotation
              End Site
              {
                OFFSET -15 0 0
              }
            }
          }
        }
      }
      JOINT left_manubrium
      {
        OFFSET 5.722621 16.35077 3.967754
        CHANNELS 3 Zrotation Xrotation Yrotation
        JOINT left_clavicle
        {
          OFFSET 13.16364 1.694482 -4.693211
          CHANNELS 3 Zrotation Xrotation Yrotation
          JOINT left_humerus
          {
            OFFSET 29.39168 -1.063119 -2.237045
            CHANNELS 3 Zrotation Xrotation Yrotation
            JOINT left_radius
            {
              OFFSET 24.59957 -0.9528479 0.9047498
              CHANNELS 3 Zrotation Xrotation Yrotation
              End Site
              {
                OFFSET 15 -0 -0
              }
            }
          }
        }
      }
    }
  }
}
MOTION
Frames: 19
Frame Time: 0.0416666666667
59.45818 103.4805 253.7868 4.031715 -8.173402 6.261293 -1.30065 20.79931 7.10543 -0 26.67353 -0 5.770644 -12.37552 -1.107268 -2.839211 -20.6287 -6.769454 -0 26.37305 -0 -7.721936 -7.289237 18.60545 -1.637868 -1.182852 9.461147 -2.159461 9.89327 -2.289787 2.519102 21.9227 4.019856 1.422335 -14.44752 6.274652 0.9884674 -21.13775 10.88686 82.70605 20.06351 -7.481722 -0 0 25.92598 -22.98201 10.3466 12.38773 4.535173 -13.78435 -3.197391 -93.4437 23.70895 24.5884 0 0 -10.04201 -4.226867 5.398634 18.19529
61.35022 103.6998 260.2879 4.199037 -8.369819 6.619125 -1.667492 18.64298 6.51939 -0 32.03231 -0 5.762502 -11.41445 -1.776417 -3.916276 -17.46001 -7.684504 -0 25.36761 -0 -7.400067 -8.076945 18.12146 -1.909895 -1.262206 8.935867 -2.138442 9.674482 -2.469899 2.565541 22.13415 4.049867 1.259486 -14.3757 6.516799 1.103657 -20.50422 10.65126 83.37434 20.07721 -8.195784 -0 0 24.77494 -22.65053 10.32301 12.01102 4.403136 -13.70551 -3.320536 -92.67025 24.17291 23.53173 0 0 -9.899958 -4.166224 5.503777 18.20699
63.18837 104.192 266.6338 4.372059 -8.647481 7.211776 -1.864119 15.36481 5.817796 -0 36.95701 -0 5.556704 -10.50149 -2.675486 -4.876734 -13.49765 -8.452396 -0 24.61981 -0 -7.058859 -9.076619 17.6101 -2.174394 -1.199849 8.22415 -2.031336 9.514859 -2.772255 2.586378 22.42547 4.109891 1.090821 -14.2556 6.775454 1.280689 -19.7009 10.43538 84.23522 20.22924 -9.292352 -0 0 23.15988 -22.18032 10.3579 11.50842 4.315971 -13.90596 -3.493943 -91.53541 24.67284 21.83399 0 0 -10.26234 -3.953662 5.700481 18.00285
64.94226 104.8722 272.7455 4.534571 -8.916374 8.027612 -1.943162 11.17973 5.072685 -0 40.67531 -0 5.168197 -9.720068 -3.698901 -5.643398 -9.030192 -9.042149 -0 23.88123 -0 -6.730662 -10.24737 17.0693 -2.413541 -1.02699 7.363939 -1.844213 9.371317 -3.201992 2.598243 22.76437 4.187254 0.9254916 -14.09829 7.046379 1.42993 -18.7838 10.20373 85.22939 20.46816 -10.673 -0 0 21.27374 -21.60234 10.42214 10.92483 4.30449 -14.34708 -3.699681 -90.10371 25.16889 19.57055 0 0 -11.11722 -3.598604 5.988391 17.58096
66.60039 105.593 278.604 4.665048 -9.074886 9.023763 -1.965072 6.373043 4.357417 -0 42.40561 -0 4.617662 -9.124673 -4.729694 -6.175695 -4.357065 -9.461203 -0 22.95653 -0 -6.451617 -11.52576 16.48539 -2.616485 -0.7979681 6.40669 -1.584867 9.195575 -3.763012 2.623765 23.11135 4.265649 0.776161 -13.92158 7.325041 1.46045 -17.80627 9.918277 86.28995 20.7402 -12.2343 -0 0 19.31626 -20.95183 10.48453 10.3072 4.395854 -14.97435 -3.917415 -88.46051 25.62112 16.84841 0 0 -12.42524 -3.116386 6.36304 16.94999
68.16332 106.1841 284.2404 4.74658 -9.066859 10.14041 -1.96718 1.23441 3.715782 -0 41.81329 -0 3.925695 -8.735133 -5.689829 -6.474896 0.2882831 -9.738703 -0 21.79983 -0 -6.247052 -12.84741 15.85533 -2.780092 -0.5579547 5.407245 -1.266647 8.959216 -4.435661 2.677897 23.43615 4.330345 0.6516969 -13.74483 7.602811 1.332161 -16.80745 9.567902 87.36087 21.00775 -13.8878 -0 0 17.41489 -20.25595 10.5254 9.68395 4.596061 -15.73419 -4.126179 -86.69708 25.99682 13.79815 0 0 -14.11086 -2.525932 6.813227 16.13338
69.63556 106.5087 289.7172 4.777089 -8.892429 11.31302 -1.960359 -3.91321 3.162422 -0 39.13251 -0 3.112265 -8.543559 -6.548233 -6.576972 4.728847 -9.905777 -0 20.5722 -0 -6.130295 -14.1437 15.19908 -2.907709 -0.335501 4.43281 -0.9107901 8.660011 -5.160303 2.764771 23.71876 4.366461 0.556236 -13.59226 7.861731 1.071007 -15.81247 9.177956 88.39479 21.25158 -15.55491 -0 0 15.60397 -19.52894 10.53844 9.055517 4.883686 -16.57415 -4.3 -84.91661 26.27504 10.59172 0 0 -16.04881 -1.850603 7.32166 15.17221
71.02113 106.507 295.1157 4.769931 -8.588938 12.47589 -1.936014 -8.700345 2.697441 -0 34.99968 -0 2.197524 -8.526486 -7.304063 -6.537169 8.812096 -9.98359 -0 19.60035 -0 -6.106288 -15.33644 14.55715 -3.006266 -0.1479373 3.564372 -0.5436908 8.31506 -5.844856 2.881113 23.94532 4.357613 0.4912376 -13.49343 8.075288 0.7488604 -14.83915 8.798689 89.34631 21.46588 -17.15857 -0 0 13.85278 -18.77501 10.5256 8.400966 5.217307 -17.43962 -4.40786 -83.23347 26.45228 7.441051 0 0 -18.07226 -1.118349 7.868283 14.1214
72.32348 106.1972 300.5242 4.73867 -8.208576 13.56326 -1.871512 -12.81571 2.322666 -0 30.13108 -0 1.203531 -8.652147 -7.966849 -6.405616 12.41941 -9.985084 -0 19.20629 -0 -6.171716 -16.34915 13.97535 -3.079826 -0.00410655 2.864918 -0.1876234 7.949819 -6.408699 3.019998 24.11137 4.292763 0.4559942 -13.47015 8.221351 0.4382089 -13.90448 8.476295 90.18028 21.65366 -18.63217 -0 0 12.1249 -17.9977 10.49132 7.702669 5.553957 -18.27891 -4.427792 -81.74552 26.54482 4.540691 0 0 -20.01874 -0.3585005 8.433933 13.03717
73.54787 105.6514 306.0238 4.68217 -7.815502 14.51399 -1.724496 -16.05282 2.061044 -0 25.17546 -0 0.1592437 -8.879221 -8.538932 -6.206217 15.45109 -9.924369 -0 19.62518 -0 -6.317129 -17.09303 13.50526 -3.119797 0.09336602 2.354536 0.1438145 7.594371 -6.81304 3.172066 24.22887 4.171932 0.447307 -13.52525 8.29129 0.1845253 -13.03386 8.236002 90.87574 21.82266 -19.91396 -0 0 10.43129 -17.20925 10.43981 6.969463 5.855802 -19.03624 -4.357996 -80.53206 26.58423 2.049585 0 0 -21.73749 0.3948643 9.000109 11.97743
74.70343 104.9803 311.6773 4.583126 -7.498694 15.27906 -1.420719 -18.23851 1.97152 -0 20.81242 -0 -0.8936954 -9.151883 -9.005032 -5.930359 17.77532 -9.823611 -0 21.07546 -0 -6.530684 -17.43035 13.22229 -3.097932 0.1448227 2.015095 0.4422487 7.288077 -7.054364 3.324746 24.32977 4.005129 0.4596496 -13.64324 8.287582 0.01176235 -12.27043 8.08722 91.41726 21.98333 -20.92307 -0 0 8.848568 -16.43449 10.37577 6.243259 6.08054 -19.63348 -4.215968 -79.68408 26.61432 0.1362254 0 0 -23.04659 1.093188 9.546355 11.01647
75.8025 104.3234 317.5226 4.421377 -7.353388 15.82602 -0.8806292 -19.2259 2.122062 -0 17.67721 -0 -1.908005 -9.413537 -9.338843 -5.553708 19.2438 -9.708239 -0 23.73751 -0 -6.798591 -17.21205 13.21103 -2.979232 0.1535091 1.810721 0.7017848 7.071901 -7.147928 3.464831 24.4545 3.807185 0.4865636 -13.79954 8.2189 -0.06997029 -11.66526 8.030451 91.7908 22.14667 -21.57111 -0 0 7.486909 -15.70554 10.30458 5.583046 6.185739 -19.98688 -4.029601 -79.29214 26.6816 -1.036944 0 0 -23.75873 1.681154 10.054 10.23388
76.85735 103.8262 323.5702 4.195864 -7.43164 16.13892 -0.08967371 -18.96759 2.522373 -0 16.0568 -0 -2.847832 -9.639302 -9.521301 -5.074546 19.75444 -9.591703 -0 27.59461 -0 -7.100272 -16.38789 13.51902 -2.75338 0.1314164 1.715113 0.917991 6.968431 -7.112269 3.583904 24.62938 3.592157 0.5228315 -13.97263 8.097189 -0.0651812 -11.25602 8.060291 91.98453 22.31971 -21.80212 -0 0 6.433914 -15.05538 10.22916 5.040013 6.150616 -20.05568 -3.82515 -79.39745 26.81376 -1.391808 0 0 -23.77239 2.119509 10.5132 9.679472
77.87794 103.6017 329.7935 3.940196 -7.722155 16.22116 0.860134 -17.52177 3.088229 -0 15.73685 -0 -3.691795 -9.857161 -9.544812 -4.544443 19.22468 -9.466868 -0 32.3229 -0 -7.394369 -15.06345 14.14199 -2.455877 0.1095257 1.730355 1.084244 6.974999 -6.957785 3.679482 24.85858 3.373064 0.5653591 -14.14705 7.937824 0.005333829 -11.06951 8.169129 91.97867 22.5025 -21.59042 -0 0 5.750969 -14.52818 10.14514 4.660144 5.985959 -19.86073 -3.624451 -79.98582 27.00767 -0.948394 0 0 -23.09175 2.388496 10.92195 9.36504
78.87188 103.6915 336.1134 3.72115 -8.163968 16.10141 1.795016 -15.01166 3.667557 -0 16.09122 -0 -4.4266 -10.1424 -9.408137 -4.064999 17.54639 -9.311835 -0 37.32048 -0 -7.610642 -13.47347 15.0363 -2.16414 0.1391995 1.886482 1.189524 7.069787 -6.683948 3.752668 25.12939 3.163722 0.6127656 -14.31116 7.759735 0.1071919 -11.13314 8.349639 91.73883 22.6874 -20.91879 -0 0 5.494167 -14.18704 10.03983 4.495476 5.728211 -19.46946 -3.44748 -81.00991 27.23383 0.2112117 0 0 -21.78951 2.479162 11.28157 9.277435
79.84634 104.0583 342.4094 3.600958 -8.679869 15.82878 2.556162 -11.6037 4.12225 -0 16.44399 -0 -5.045935 -10.5691 -9.116214 -3.72609 14.6644 -9.111705 -0 41.93597 -0 -7.681846 -11.86647 16.13588 -1.95496 0.2648681 2.21079 1.224372 7.222906 -6.29018 3.804642 25.42159 2.977297 0.6640699 -14.45884 7.580745 0.204751 -11.4638 8.592074 91.2399 22.86002 -19.78864 -0 0 5.698909 -14.0876 9.899957 4.587822 5.422747 -18.95922 -3.307279 -82.4059 27.44903 1.976192 0 0 -19.97231 2.395276 11.59451 9.388581
80.81144 104.6086 348.5575 3.593176 -9.194544 15.45642 3.074397 -7.512876 4.381718 -0 16.39523 -0 -5.551784 -11.16 -8.67798 -3.540297 10.69113 -8.877016 -0 45.60053 -0 -7.582237 -10.4122 17.36194 -1.860506 0.491007 2.692127 1.187557 7.400667 -5.789555 3.831899 25.71108 2.827097 0.7167598 -14.59461 7.414095 0.2673641 -12.05341 8.876268 90.49378 22.99992 -18.24039 -0 0 6.360889 -14.25257 9.718133 4.953503 5.114854 -18.38757 -3.200573 -84.09537 27.60533 4.222448 0 0 -17.76952 2.16244 11.86438 9.656138
81.78416 105.2147 354.4753 3.649212 -9.619485 15.02685 3.362214 -3.024539 4.422599 -0 15.84416 -0 -5.953283 -11.87636 -8.098439 -3.431241 5.939793 -8.637178 -0 47.68323 -0 -7.330733 -9.214893 18.61907 -1.859326 0.7723018 3.267902 1.086328 7.558886 -5.213539 3.821689 25.96496 2.732518 0.7652601 -14.73746 7.270939 0.2597787 -12.87223 9.162925 89.55243 23.08128 -16.35488 -0 0 7.447421 -14.67918 9.491009 5.59463 4.857846 -17.79071 -3.103335 -85.97377 27.65259 6.809203 0 0 -15.34386 1.833765 12.09666 10.01796
82.78958 105.7299 360.1482 3.684831 -9.857384 14.56787 3.475341 1.538231 4.239754 -0 14.88112 -0 -6.263696 -12.63813 -7.378365 -3.278845 0.84477 -8.415511 -0 47.52238 -0 -6.970276 -8.340335 19.80562 -1.896285 1.034116 3.844448 0.9335416 7.648474 -4.604973 3.755841 26.14543 2.717055 0.8026393 -14.91524 7.161519 0.1423988 -13.878 9.399889 88.49286 23.07895 -14.23884 -0 0 8.90897 -15.35022 9.216158 6.505285 4.708174 -17.19156 -2.980581 -87.91648 27.54873 9.585875 0 0 -12.87521 1.478894 12.29896 10.40046
